<svg width="250" height="104" viewBox="0 0 250 104" fill="none" xmlns="http://www.w3.org/2000/svg">
<g opacity="0.7">
<path d="M61.993 57.803C62.7522 56.2074 63.1274 54.4562 63.0887 52.6896C63.1751 50.9702 62.7629 49.2624 61.9016 47.7717C61.1378 46.5773 60.1101 45.5743 58.8975 44.8397C57.6777 44.1073 56.3664 43.5393 54.9977 43.1505C53.6061 42.753 52.3059 42.3573 51.0969 41.9635C50.0291 41.6344 49.0161 41.1485 48.091 40.5217C47.7035 40.2498 47.3914 39.884 47.1838 39.4585C46.9762 39.0331 46.8799 38.562 46.904 38.0892C46.8858 37.4876 47.0598 36.8959 47.4007 36.4C47.7374 35.9306 48.18 35.5474 48.6927 35.2814C49.225 34.9989 49.7933 34.7903 50.382 34.6614C50.9513 34.5319 51.533 34.4652 52.1169 34.4624C53.1604 34.4778 54.1936 34.6711 55.1721 35.034C56.1752 35.3656 57.0623 35.9774 57.7288 36.7972L63.0439 30.9844C61.598 29.6861 59.8854 28.7199 58.0264 28.1538C56.1579 27.5891 54.2159 27.3044 52.2639 27.3091C50.5657 27.3061 48.876 27.5488 47.2473 28.0296C45.6897 28.4713 44.2287 29.2013 42.9402 30.1817C41.6982 31.1427 40.681 32.3633 39.9599 33.7584C39.1881 35.2986 38.8044 37.0041 38.8422 38.7265C38.7623 40.3873 39.1863 42.0335 40.0585 43.4491C40.8522 44.6234 41.8962 45.6073 43.1155 46.3299C44.3637 47.069 45.698 47.6516 47.0884 48.0648C48.5117 48.4958 49.8363 48.9265 51.0622 49.3568C52.155 49.7191 53.1857 50.247 54.1184 50.9219C54.5106 51.2088 54.8266 51.5874 55.0386 52.0247C55.2506 52.462 55.3523 52.9445 55.3346 53.4302C55.35 54.0133 55.1858 54.587 54.8644 55.0737C54.5429 55.5428 54.1184 55.9323 53.6235 56.2124C53.0819 56.5216 52.4971 56.7481 51.8886 56.8844C49.9835 57.33 47.9829 57.1016 46.2274 56.2379C45.0366 55.6777 44.0018 54.8332 43.2142 53.779L37.7 59.8392C39.2729 61.3248 41.132 62.4743 43.1639 63.2177C45.2081 63.9285 47.3595 64.2819 49.5237 64.2623C51.2778 64.2704 53.0246 64.0363 54.7146 63.5665C56.2795 63.1397 57.7471 62.4142 59.0363 61.4298C60.2847 60.4613 61.2959 59.221 61.993 57.803Z" fill="#1C3554"/>
<path d="M65.6179 35.0504H75.6538V63.3665H83.4024V35.0504H93.4373V28.1948H65.6179V35.0504Z" fill="#1C3554"/>
<path d="M151.835 32.2955C149.801 30.807 147.488 29.7417 145.035 29.1626C142.342 28.5064 139.579 28.1813 136.808 28.1947H119.269V49.5056C119.279 50.5389 119.102 51.5656 118.747 52.5361C118.421 53.4281 117.923 54.2472 117.281 54.9467C116.653 55.6243 115.893 56.1652 115.047 56.5355C114.154 56.9231 113.189 57.1179 112.216 57.1071C111.234 57.1167 110.261 56.922 109.359 56.5355C108.503 56.1698 107.733 55.6285 107.099 54.9467C106.457 54.2467 105.959 53.4277 105.633 52.5361C105.278 51.5656 105.101 50.5389 105.111 49.5056V28.1947H97.3608V49.8041C97.3401 51.7651 97.6595 53.7149 98.305 55.5667C98.904 57.2729 99.8606 58.8313 101.111 60.1377C102.422 61.4756 104.009 62.5111 105.761 63.1719C107.433 63.7959 109.193 64.1486 110.976 64.2165L110.913 64.2649H137.881C140.491 64.2761 143.086 63.8806 145.573 63.0925C147.926 62.3617 150.121 61.1952 152.044 59.6537C153.919 58.1326 155.441 56.2205 156.501 54.051C157.645 51.6416 158.212 48.999 158.157 46.3325C158.24 43.4384 157.656 40.5641 156.449 37.932C155.386 35.7102 153.803 33.7769 151.835 32.2955ZM148.905 51.0916C148.295 52.4383 147.358 53.6117 146.181 54.5057C144.957 55.4036 143.56 56.0368 142.079 56.3648C140.4 56.7493 138.682 56.9371 136.96 56.9245H132.834V35.5306H137.521C139.13 35.5241 140.733 35.7392 142.284 36.1697C143.708 36.5536 145.047 37.2019 146.232 38.0809C147.36 38.9391 148.275 40.0462 148.905 41.316C149.596 42.7523 149.936 44.3319 149.899 45.9253C149.95 47.6994 149.611 49.4632 148.905 51.0916Z" fill="#1C3554"/>
<path d="M169.896 28.1948H162.145V63.3665H169.896V28.1948Z" fill="#1C3554"/>
<path d="M211.599 53.4301C212.571 50.9986 213.053 48.3986 213.015 45.7802C213.052 43.1617 212.571 40.5617 211.599 38.1302C210.71 35.9266 209.364 33.9366 207.65 32.2919C205.92 30.6611 203.874 29.402 201.639 28.592C196.718 26.8692 191.358 26.8692 186.437 28.592C184.202 29.4018 182.156 30.6609 180.426 32.2919C178.712 33.9367 177.365 35.9267 176.476 38.1302C175.505 40.5619 175.024 43.1618 175.061 45.7802C175.024 48.3985 175.505 50.9984 176.476 53.4301C177.366 55.6333 178.712 57.6229 180.426 59.2675C182.156 60.8996 184.202 62.1595 186.437 62.9692C191.358 64.692 196.718 64.692 201.639 62.9692C203.874 62.1593 205.92 60.8994 207.65 59.2675C209.364 57.6231 210.71 55.6335 211.599 53.4301ZM204.203 50.3256C203.716 51.656 202.964 52.8731 201.99 53.9022C201.018 54.922 199.842 55.7261 198.539 56.2625C195.647 57.3887 192.438 57.3887 189.547 56.2625C188.243 55.7261 187.068 54.922 186.095 53.9022C185.122 52.8731 184.369 51.656 183.883 50.3256C182.857 47.3904 182.857 44.1945 183.883 41.2594C184.365 39.9196 185.118 38.6934 186.095 37.6572C187.069 36.6391 188.244 35.8358 189.547 35.2987C192.438 34.1725 195.647 34.1725 198.539 35.2987C199.841 35.8358 201.017 36.6391 201.99 37.6572C202.967 38.6934 203.72 39.9196 204.203 41.2594C205.227 44.1947 205.227 47.3902 204.203 50.3256Z" fill="#1C3554"/>
<path d="M37.7712 70.664H39.8038V76.3991H41.3725V70.664H43.406V69.2751H37.7712V70.664Z" fill="#1C3554"/>
<path d="M60.6124 69.2751L57.5334 76.3973H59.2629L59.8573 74.888H62.624L63.2376 76.3973H65.009L61.9099 69.2751H60.6124ZM60.3504 73.5667L61.2151 71.3524L62.0907 73.5667H60.3504Z" fill="#1C3554"/>
<path d="M85.8969 74.226H85.8759L82.8481 69.2751H80.7151V76.3991H82.2847V71.3278H82.3048L85.4139 76.3991H87.4665V69.2751H85.8969V74.226Z" fill="#1C3554"/>
<path d="M106.252 69.2751L103.173 76.3973H104.903L105.497 74.888H108.263L108.877 76.3973H110.648L107.549 69.2751H106.252ZM105.99 73.5667L106.854 71.3524L107.73 73.5667H105.99Z" fill="#1C3554"/>
<path d="M130.973 71.9323H127.924V69.2751H126.354V76.3991H127.924V73.3202H130.973V76.3991H132.543V69.2751H130.973V71.9323Z" fill="#1C3554"/>
<path d="M169.299 69.2751L166.22 76.3973H167.955L168.548 74.888H171.315L171.928 76.3973H173.7L170.601 69.2751H169.299ZM169.037 73.5667L169.901 71.3524L170.777 73.5667H169.037Z" fill="#1C3554"/>
<path d="M190.951 69.2751H189.38V76.3991H190.951V69.2751Z" fill="#1C3554"/>
<path d="M211.275 73.3904C211.73 73.3254 212.142 73.0853 212.422 72.7211C212.69 72.3494 212.828 71.9004 212.815 71.4428C212.827 71.0832 212.753 70.7261 212.599 70.4009C212.463 70.1336 212.262 69.9052 212.014 69.7371C211.754 69.5663 211.464 69.4467 211.16 69.3846C210.82 69.3127 210.474 69.2772 210.128 69.2787H207.371V76.4009H208.942V73.552H209.717L211.206 76.3991H213.087L211.275 73.3904ZM211.058 71.8811C210.976 71.9875 210.867 72.0694 210.741 72.1176C210.605 72.1707 210.46 72.2015 210.314 72.2089C210.156 72.2198 210.007 72.2244 209.866 72.2244H208.942V70.6036H209.968C210.112 70.6039 210.257 70.614 210.4 70.6338C210.537 70.6502 210.67 70.6894 210.793 70.7497C210.907 70.8063 211.003 70.8909 211.075 70.9954C211.154 71.1251 211.193 71.276 211.185 71.4282C211.195 71.5891 211.15 71.7487 211.058 71.8811Z" fill="#1C3554"/>
</g>
</svg>
