<svg width="251" height="104" viewBox="0 0 251 104" fill="none" xmlns="http://www.w3.org/2000/svg">
<path d="M58.6029 57.3759L58.7412 75.5625C58.7522 77.0187 58.7785 77.9334 58.8204 78.3066C58.8318 78.4765 58.8808 78.6417 58.9637 78.7904C59.0467 78.9391 59.1615 79.0676 59.3001 79.1667C59.7556 79.4043 60.2704 79.5042 60.7818 79.4543H61.1804L61.1877 80.2188L53.9065 80.2734L53.9001 79.5089H54.3661C54.8562 79.543 55.3464 79.4443 55.7851 79.2231C55.9202 79.1383 56.0352 79.0249 56.1218 78.891C56.2084 78.757 56.2647 78.6057 56.2866 78.4476C56.3588 77.4956 56.3791 76.5404 56.3475 75.5861L56.2456 62.1159C56.3288 61.1975 56.1908 60.2725 55.8433 59.4182C55.5867 59.0481 54.9644 58.8661 53.9766 58.8721L53.9711 58.1076C54.7716 58.0899 55.5692 58.0059 56.3557 57.8564C56.9993 57.7672 57.631 57.6063 58.2388 57.3768L58.6029 57.3759Z" fill="#1C3554"/>
<path d="M62.9307 73.3744C62.8977 72.4065 63.0628 71.442 63.4157 70.5401C63.7686 69.6382 64.3019 68.8178 64.983 68.1292C66.3529 66.7694 68.2011 66.0005 70.1313 65.9876C72.0615 65.9747 73.9198 66.7187 75.3078 68.0601C75.9982 68.7373 76.5435 69.5481 76.9102 70.4431C77.277 71.338 77.4577 72.2982 77.4412 73.2652C77.5021 74.266 77.3478 75.2682 76.9886 76.2043C76.6294 77.1403 76.0736 77.9885 75.3587 78.6915C73.9794 80.0042 72.1413 80.7252 70.2373 80.7002C69.293 80.7268 68.3528 80.567 67.4703 80.2299C66.5878 79.8929 65.7803 79.3853 65.0941 78.7361C64.375 78.0461 63.8104 77.2115 63.4374 76.2873C63.0645 75.363 62.8918 74.3703 62.9307 73.3744ZM65.6902 73.4363C65.7084 75.8525 66.1147 77.5423 66.9089 78.5059C67.3122 78.9867 67.8225 79.3666 68.3988 79.615C68.9752 79.8635 69.6017 79.9736 70.2282 79.9366C70.8595 79.9695 71.4897 79.8525 72.0671 79.5951C72.6445 79.3377 73.1527 78.9473 73.5503 78.4558C74.313 77.4807 74.6855 75.7848 74.6679 73.3681C74.6485 70.9744 74.2541 69.2706 73.4847 68.2567C73.0913 67.7503 72.5796 67.3481 71.9945 67.0855C71.4095 66.8229 70.7689 66.7078 70.129 66.7504C69.4907 66.7187 68.8543 66.843 68.2748 67.1126C67.6953 67.3822 67.1903 67.789 66.8033 68.2976C66.0443 69.3182 65.6732 71.0311 65.6902 73.4363Z" fill="#1C3554"/>
<path d="M90.318 67.5821C90.6485 67.1237 91.0739 66.7419 91.5651 66.4625C92.0564 66.1831 92.602 66.0127 93.1649 65.963C93.3898 65.9476 93.6155 65.9772 93.8288 66.05C94.0421 66.1228 94.2388 66.2374 94.4073 66.3871C94.543 66.505 94.6528 66.6498 94.7299 66.8122C94.807 66.9746 94.8496 67.1512 94.8551 67.3309C94.8605 68.0627 94.5308 68.431 93.8658 68.4359C93.6605 68.4205 93.4634 68.3495 93.2955 68.2306C93.1276 68.1116 92.9953 67.9491 92.9128 67.7605C92.6653 67.3428 92.4095 67.1325 92.1437 67.1343C91.8643 67.177 91.5966 67.2768 91.3574 67.4276C91.1183 67.5785 90.9129 67.777 90.7539 68.0108C91.3215 68.8672 91.6291 69.8696 91.6395 70.8969C91.655 72.2136 91.1511 73.4833 90.237 74.431C89.291 75.4698 87.6883 76.0365 85.4287 76.1312C83.0799 76.2258 81.9085 76.7112 81.9146 77.5874C81.9182 77.997 82.1864 78.2828 82.7192 78.4448C83.8004 78.6896 84.9053 78.815 86.0139 78.8188C87.4346 78.8455 88.8496 79.0049 90.2406 79.2949C91.0385 79.5004 91.7617 79.9278 92.3265 80.5277C92.8912 81.1275 93.2744 81.8752 93.4315 82.6839C93.5886 83.4927 93.5132 84.3294 93.2141 85.0971C92.9149 85.8647 92.4043 86.5319 91.7415 87.0211C90.217 88.027 88.409 88.5147 86.5855 88.4118C84.8538 88.5085 83.1308 88.1057 81.6215 87.2514C81.0687 86.9617 80.6028 86.5302 80.2718 86.0011C79.9407 85.4721 79.7563 84.8644 79.7375 84.2406C79.7077 83.6409 79.8915 83.0501 80.2563 82.5732C80.4396 82.354 80.6713 82.1802 80.9332 82.0657C81.195 81.9512 81.4799 81.8991 81.7653 81.9134C81.9296 81.9108 82.093 81.9379 82.2477 81.9934C81.6146 82.6346 81.2519 83.4944 81.2347 84.3953C81.2417 84.8818 81.3731 85.3584 81.6164 85.7798C81.8597 86.2012 82.2067 86.5533 82.6245 86.8027C83.8693 87.5152 85.2991 87.8379 86.7293 87.7292C88.061 87.7969 89.3806 87.4469 90.5037 86.728C90.9192 86.4572 91.2596 86.0858 91.4932 85.6482C91.7268 85.2106 91.846 84.7211 91.8398 84.2251C91.8771 83.7594 91.7813 83.2926 91.5634 82.8792C91.3455 82.4659 91.0146 82.123 90.6092 81.8906C89.2336 81.3437 87.7603 81.085 86.2806 81.1306C83.8978 81.0481 82.3505 80.766 81.6388 80.2842C81.3147 80.0985 81.0447 79.8313 80.8555 79.5091C80.6663 79.187 80.5646 78.8211 80.5603 78.4475C80.5494 76.9949 81.5569 76.0726 83.5829 75.6806C82.6333 75.1676 81.8128 74.4452 81.1837 73.5682C80.6477 72.781 80.3622 71.8502 80.3646 70.8978C80.3543 70.2247 80.4934 69.5577 80.772 68.9448C81.0505 68.3319 81.4616 67.7885 81.9756 67.3537C83.0311 66.3861 84.4146 65.8555 85.8464 65.8692C86.6701 65.8259 87.4938 65.9559 88.2641 66.251C89.0343 66.546 89.7341 66.9995 90.318 67.5821ZM82.8648 71.2619C82.7798 72.3811 83.1006 73.4935 83.7686 74.3955C84.0471 74.7062 84.3884 74.9543 84.77 75.1233C85.1515 75.2923 85.5646 75.3785 85.9819 75.3761C86.3991 75.3737 86.8112 75.2828 87.1907 75.1093C87.5703 74.9359 87.9087 74.6839 88.1837 74.37C88.8809 73.3666 89.193 72.1455 89.0629 70.9306C89.0508 69.2923 88.7213 68.1643 88.0745 67.5466C87.7894 67.2567 87.4494 67.0263 87.0744 66.8691C86.6993 66.7119 86.2968 66.631 85.8901 66.631C85.4404 66.6083 84.9927 66.704 84.5916 66.9086C84.1905 67.1132 83.8502 67.4195 83.6047 67.7969C83.0314 68.8572 82.7745 70.0599 82.8648 71.2619Z" fill="#1C3554"/>
<path d="M95.9126 73.1215C95.8798 72.1536 96.0452 71.1892 96.3986 70.2875C96.752 69.3859 97.286 68.566 97.9677 67.8781C99.3366 66.517 101.185 65.7471 103.115 65.7338C105.045 65.7205 106.904 66.465 108.292 67.8071C108.982 68.4845 109.527 69.2953 109.894 70.1902C110.261 71.0851 110.441 72.0453 110.425 73.0123C110.486 74.0136 110.331 75.0163 109.97 75.9526C109.61 76.889 109.053 77.737 108.337 78.4395C106.958 79.752 105.12 80.4726 103.217 80.4473C102.273 80.475 101.333 80.3166 100.45 79.981C99.5673 79.6454 98.7594 79.1392 98.0724 78.4914C97.3527 77.8002 96.7881 76.9641 96.4158 76.0384C96.0434 75.1127 95.8719 74.1184 95.9126 73.1215ZM98.6731 73.1843C98.6913 75.6004 99.0972 77.2906 99.8909 78.2547C100.317 78.7105 100.834 79.073 101.408 79.3192C101.981 79.5654 102.6 79.69 103.224 79.6852C103.848 79.6804 104.465 79.5463 105.035 79.2913C105.605 79.0364 106.115 78.666 106.535 78.2038C107.298 77.2293 107.671 75.5334 107.653 73.116C107.633 70.7223 107.239 69.0188 106.469 68.0055C106.052 67.5292 105.538 67.1483 104.96 66.8886C104.383 66.6289 103.756 66.4964 103.123 66.5003C102.49 66.5042 101.865 66.6443 101.291 66.9111C100.717 67.1779 100.207 67.5651 99.7953 68.0465C99.0283 69.0695 98.6543 70.7833 98.6731 73.1879V73.1843Z" fill="#1C3554"/>
<path d="M117.271 65.1904L117.345 74.98C117.356 76.4763 117.386 77.4189 117.436 77.8078C117.451 77.9834 117.504 78.1536 117.591 78.3068C117.678 78.46 117.797 78.5925 117.94 78.6952C118.411 78.9392 118.941 79.0422 119.468 78.9919H119.833L119.839 79.781L112.278 79.8375L112.272 79.0483L112.855 79.0438C113.409 79.1069 113.968 78.9784 114.438 78.6797C114.675 78.4576 114.824 78.1585 114.86 77.836C114.899 77.5102 114.912 76.5643 114.9 74.9982L114.859 70.746C114.914 69.734 114.829 68.7193 114.606 67.7306C114.556 67.5795 114.474 67.4407 114.367 67.3233C114.259 67.2058 114.128 67.1124 113.982 67.0489C113.542 66.9404 113.089 66.8977 112.637 66.9224H112.174L112.167 66.1333C113.774 66.0013 115.359 65.6843 116.893 65.1886L117.271 65.1904ZM113.904 58.0485C113.899 57.8123 113.942 57.5776 114.03 57.3586C114.119 57.1396 114.251 56.9408 114.418 56.7743C114.578 56.602 114.773 56.4649 114.989 56.3718C115.205 56.2788 115.438 56.2317 115.673 56.2336C115.907 56.228 116.14 56.2715 116.356 56.3613C116.573 56.4511 116.768 56.5853 116.929 56.7552C117.096 56.9202 117.229 57.1171 117.319 57.3343C117.409 57.5514 117.454 57.7844 117.452 58.0194C117.459 58.2574 117.418 58.4943 117.331 58.7161C117.244 58.9379 117.114 59.1401 116.948 59.3109C116.789 59.4827 116.597 59.6195 116.382 59.7125C116.167 59.8054 115.935 59.8524 115.701 59.8506C115.466 59.8556 115.232 59.8118 115.015 59.7221C114.797 59.6323 114.6 59.4985 114.437 59.3291C114.267 59.1623 114.133 58.9629 114.042 58.7428C113.951 58.5227 113.906 58.2866 113.908 58.0485H113.904Z" fill="#1C3554"/>
<path d="M124.729 65.133H125.192C125.406 65.8851 125.51 66.664 125.501 67.4457C126.16 66.7126 126.956 66.1153 127.844 65.6873C129.093 65.1219 130.486 64.9548 131.833 65.2087C133.18 65.4626 134.416 66.1251 135.373 67.1062C136.718 68.5732 137.429 70.5121 137.351 72.5007C137.431 74.5136 136.751 76.483 135.447 78.018C134.817 78.7486 134.033 79.3296 133.15 79.7186C132.268 80.1077 131.309 80.295 130.345 80.267C129.487 80.276 128.636 80.1045 127.848 79.7637C127.006 79.3924 126.238 78.8726 125.581 78.2292L125.621 83.5608C125.603 84.5504 125.642 85.5402 125.738 86.5252C125.764 86.69 125.826 86.8469 125.921 86.9843C126.015 87.1217 126.14 87.236 126.284 87.3188C126.811 87.5341 127.382 87.6208 127.949 87.5719L127.955 88.361L120.618 88.4119L120.611 87.6228H121.126C121.68 87.6853 122.238 87.5569 122.709 87.2588C122.947 87.0373 123.096 86.7378 123.131 86.4151C123.169 86.0904 123.182 85.1448 123.17 83.5781L123.074 70.8233C123.063 69.327 123.036 68.3841 122.992 67.9945C122.98 67.8194 122.93 67.6491 122.844 67.4959C122.758 67.3426 122.64 67.2102 122.497 67.1081C122.027 66.8639 121.496 66.7608 120.969 66.8113H120.456L120.448 66.0222C121.896 65.8363 123.327 65.539 124.729 65.133ZM125.574 77.0942C126.118 77.7788 126.789 78.3528 127.549 78.7853C128.219 79.1571 128.973 79.3493 129.738 79.3432C130.39 79.3324 131.031 79.1752 131.614 78.8831C132.197 78.591 132.707 78.1715 133.106 77.6558C134.058 76.5387 134.525 74.7691 134.506 72.3469C134.623 70.6573 134.117 68.9833 133.082 67.6423C132.676 67.1577 132.168 66.7688 131.594 66.5035C131.02 66.2382 130.394 66.1031 129.762 66.1078C128.974 66.1132 128.2 66.326 127.52 66.7249C126.737 67.1994 126.054 67.8213 125.508 68.5561L125.574 77.0942Z" fill="#1C3554"/>
<path d="M140.219 80.0705L140.184 75.4596L140.853 75.4533C141.65 78.1103 143.049 79.4315 145.05 79.417C145.413 79.4413 145.777 79.3814 146.114 79.242C146.45 79.1026 146.75 78.8875 146.989 78.6133C147.398 78.1275 147.621 77.5125 147.619 76.8777C147.629 76.5467 147.572 76.2173 147.451 75.9088C147.331 75.6004 147.15 75.3192 146.919 75.0819C146.093 74.3933 145.171 73.8289 144.182 73.4063C143.047 72.9141 142.008 72.2251 141.113 71.3713C140.491 70.7113 140.152 69.8336 140.17 68.9266C140.179 67.9554 140.523 67.0172 141.144 66.2708C141.473 65.8511 141.897 65.5159 142.381 65.293C142.866 65.0701 143.396 64.966 143.929 64.9893C144.516 64.9772 145.098 65.1039 145.628 65.3592C146.157 65.6144 146.619 65.991 146.976 66.4583C147.259 66.0762 147.481 65.6521 147.634 65.2014H148.271L148.303 69.5391L147.666 69.5437C147.453 68.5514 146.988 67.6305 146.317 66.8697C146.035 66.5239 145.679 66.2453 145.276 66.0542C144.873 65.8631 144.432 65.7642 143.986 65.7647C143.68 65.7538 143.375 65.8056 143.09 65.9169C142.805 66.0281 142.545 66.1966 142.328 66.4118C142.128 66.6026 141.97 66.8323 141.863 67.0867C141.756 67.3411 141.702 67.6148 141.705 67.8908C141.705 68.1911 141.769 68.4879 141.892 68.7618C142.015 69.0357 142.194 69.2805 142.419 69.48C143.208 70.1322 144.098 70.6522 145.053 71.0199C147.004 71.8864 148.199 72.7359 148.639 73.5684C149.053 74.313 149.283 75.1459 149.309 75.9975C149.334 76.5515 149.242 77.1044 149.038 77.6201C148.834 78.1357 148.523 78.6023 148.126 78.9892C147.722 79.3746 147.246 79.6765 146.726 79.8775C146.205 80.0786 145.65 80.1747 145.092 80.1606C144.437 80.1594 143.79 80.019 143.194 79.7488C142.598 79.4786 142.066 79.0847 141.633 78.5933C141.28 79.0266 141.027 79.5316 140.89 80.0732L140.219 80.0705Z" fill="#1C3554"/>
<path d="M165.656 65.3915L165.725 74.5976C165.736 76.1291 165.766 77.0887 165.816 77.4764C165.83 77.6512 165.883 77.8204 165.972 77.9715C166.061 78.1225 166.183 78.2514 166.329 78.3484C166.818 78.5804 167.36 78.6766 167.899 78.6269L167.905 79.416C166.614 79.3769 165.326 79.5721 164.104 79.9921H163.898C163.444 78.9703 163.236 77.8561 163.291 76.7392C162.697 77.7321 161.886 78.5768 160.917 79.2094C160.027 79.7639 158.998 80.0563 157.948 80.0531C157.077 80.0775 156.216 79.8621 155.458 79.4305C154.807 79.0835 154.283 78.5376 153.963 77.8724C153.643 76.9781 153.499 76.0306 153.539 75.0818L153.503 70.299C153.519 69.306 153.483 68.3129 153.395 67.3237C153.373 67.1579 153.312 66.9997 153.217 66.862C153.122 66.7243 152.996 66.6112 152.849 66.5319C152.317 66.324 151.744 66.2403 151.175 66.2871L151.169 65.498L155.934 65.4616L156.008 75.2002C155.989 75.9029 156.053 76.6054 156.196 77.2935C156.343 77.7657 156.657 78.1684 157.078 78.4266C157.559 78.752 158.13 78.9185 158.711 78.9026C159.622 78.8845 160.503 78.5744 161.225 78.018C161.918 77.5547 162.477 76.9184 162.848 76.1722C163.173 75.2856 163.315 74.3421 163.265 73.399L163.241 70.228C163.23 68.6965 163.206 67.7648 163.168 67.4329C163.13 67.1012 162.972 66.7949 162.724 66.571C162.246 66.27 161.679 66.1439 161.118 66.2143H160.754L160.749 65.4252L165.656 65.3915Z" fill="#1C3554"/>
<path d="M173.605 64.7654H173.776C174.145 65.7017 174.321 66.7027 174.295 67.7088C174.956 66.8084 175.792 66.0507 176.752 65.4807C177.62 64.9855 178.602 64.7237 179.601 64.7208C180.6 64.6668 181.589 64.9361 182.422 65.4889C183.189 66.0729 183.729 66.9053 183.95 67.8435C184.685 66.8952 185.585 66.0869 186.606 65.4571C187.447 64.944 188.409 64.6644 189.393 64.647C190.368 64.6088 191.332 64.8644 192.16 65.3806C192.819 65.7545 193.314 66.3632 193.544 67.0853C193.746 68.1062 193.834 69.1461 193.807 70.1862L193.839 74.4038C193.821 75.3991 193.86 76.3947 193.956 77.3855C193.981 77.5504 194.044 77.7072 194.14 77.8435C194.237 77.9798 194.363 78.0919 194.51 78.171C195.048 78.3798 195.626 78.4629 196.201 78.414L196.207 79.2031L189.198 79.2568L189.193 78.4677C189.728 78.5008 190.263 78.4118 190.758 78.2074C190.902 78.1315 191.027 78.0236 191.123 77.892C191.218 77.7604 191.282 77.6086 191.31 77.4483C191.401 76.4426 191.428 75.4321 191.39 74.423L191.355 69.7421C191.367 69.0239 191.306 68.3063 191.173 67.6005C191.046 67.0999 190.74 66.6628 190.314 66.3709C189.79 66.013 189.163 65.8372 188.529 65.8703C187.724 65.8964 186.946 66.1655 186.297 66.6421C185.427 67.2767 184.671 68.0533 184.059 68.9393L184.102 74.4776C184.113 75.9739 184.139 76.9143 184.182 77.299C184.195 77.4734 184.245 77.6429 184.329 77.7961C184.413 77.9494 184.529 78.0828 184.67 78.1873C185.128 78.4383 185.651 78.5448 186.171 78.4931L186.179 79.2822L179.388 79.3332L179.382 78.5441C179.928 78.5779 180.474 78.4921 180.983 78.2929C181.127 78.2197 181.252 78.1149 181.349 77.9865C181.446 77.858 181.513 77.7091 181.544 77.5511C181.644 76.5369 181.675 75.5169 181.635 74.4985L181.605 70.6067C181.62 69.7097 181.564 68.8129 181.439 67.9245C181.33 67.3573 181.011 66.8519 180.547 66.5083C180.019 66.1075 179.369 65.9034 178.707 65.9313C177.934 65.9566 177.184 66.1995 176.543 66.6321C175.693 67.2027 174.938 67.9025 174.305 68.7063L174.349 74.5531C174.36 76.0955 174.391 77.0557 174.44 77.4337C174.456 77.6061 174.511 77.7726 174.601 77.9204C174.691 78.0682 174.814 78.1935 174.96 78.2865C175.459 78.5188 176.01 78.6151 176.557 78.566L176.563 79.3551L169.689 79.406L169.683 78.6169C170.224 78.6509 170.765 78.5619 171.267 78.3566C171.409 78.2819 171.533 78.1755 171.629 78.0457C171.724 77.916 171.789 77.7661 171.818 77.6076C171.909 76.5985 171.936 75.5847 171.898 74.5722L171.866 70.3719C171.855 68.7706 171.822 67.7904 171.767 67.4312C171.747 67.2636 171.688 67.1032 171.594 66.9625C171.501 66.8219 171.376 66.705 171.229 66.6212C170.713 66.4014 170.15 66.3114 169.591 66.359L169.585 65.5699C170.95 65.4488 172.298 65.179 173.605 64.7654Z" fill="#1C3554"/>
<path d="M183.423 48.7903H150.343V15.7109C159.116 15.7109 167.53 19.196 173.733 25.3996C179.937 31.6032 183.423 40.017 183.423 48.7903Z" fill="#1C3554"/>
<path d="M83.2235 48.7903H66.6833V32.2502C66.6836 27.8636 68.4263 23.6568 71.5282 20.5551C74.63 17.4534 78.8369 15.7109 83.2235 15.7109C85.3955 15.7108 87.5463 16.1385 89.5531 16.9697C91.5598 17.8008 93.3832 19.019 94.9191 20.5548C96.455 22.0907 97.6734 23.914 98.5046 25.9207C99.3358 27.9274 99.7636 30.0781 99.7636 32.2502C99.7636 36.6369 98.021 40.8439 94.9191 43.9458C91.8173 47.0477 87.6102 48.7903 83.2235 48.7903Z" fill="#1C3554"/>
<path d="M141.649 48.7904H108.568L108.457 15.6L131.154 38.2955L141.649 48.7904Z" fill="#1C3554"/>
</svg>
