<svg width="250" height="104" viewBox="0 0 250 104" fill="none" xmlns="http://www.w3.org/2000/svg">
<g opacity="0.5">
<path d="M26.2 45.4983V52.7184C28.6672 52.7167 31.1106 53.2015 33.3903 54.1451C35.67 55.0887 37.7413 56.4725 39.4856 58.2174C41.2295 59.9617 42.6125 62.0326 43.5555 64.3117C44.4986 66.5908 44.9831 69.0335 44.9815 71.5H52.1965C52.19 64.6068 49.4492 57.9977 44.5754 53.123C39.7017 48.2483 33.0931 45.5062 26.2 45.4983H26.2Z" fill="#1C3554"/>
<path d="M62.2821 32.5H50.8479C56.6322 36.1656 61.5334 41.0662 65.1999 46.85V35.4158C65.1994 34.6423 64.8917 33.9006 64.3446 33.3539C63.7974 32.8071 63.0556 32.5 62.2821 32.5Z" fill="#1C3554"/>
<path d="M33.3842 32.5H26.2V39.0007C34.8166 39.0096 43.0779 42.4365 49.1709 48.5294C55.2639 54.6222 58.6911 62.8833 58.7003 71.5H65.2V64.3158C63.7304 56.4199 59.9042 49.154 54.225 43.4749C48.5459 37.7958 41.2801 33.9696 33.3842 32.5Z" fill="#1C3554"/>
<path d="M82.8844 36.7931H78.3049V59.8749H82.8844V36.7931Z" fill="#1C3554"/>
<path d="M99.7223 46.7935C98.96 46.1005 98.0676 45.5657 97.097 45.2201C95.012 44.488 92.7398 44.488 90.6548 45.2201C89.6838 45.5654 88.7911 46.1002 88.0285 46.7935C87.2806 47.4829 86.6831 48.3194 86.2735 49.2505C85.8501 50.2662 85.6321 51.3557 85.6321 52.4562C85.6321 53.5566 85.8501 54.6461 86.2735 55.6619C86.6816 56.5956 87.2792 57.4344 88.0285 58.125C88.7897 58.8188 89.682 59.3533 90.6528 59.6973C92.7375 60.4308 95.0102 60.4308 97.095 59.6973C98.0661 59.3533 98.9586 58.8188 99.7203 58.125C100.469 57.4341 101.067 56.5954 101.475 55.6619C101.899 54.6461 102.117 53.5566 102.117 52.4562C102.117 51.3557 101.899 50.2662 101.475 49.2505C101.066 48.3197 100.469 47.4833 99.7223 46.7935ZM96.5777 55.1744C95.8361 55.8423 94.8735 56.212 93.8754 56.212C92.8774 56.212 91.9147 55.8423 91.1731 55.1744C90.5498 54.4049 90.2097 53.4448 90.2097 52.4546C90.2097 51.4644 90.5498 50.5043 91.1731 49.7349C91.9147 49.0669 92.8774 48.6972 93.8754 48.6972C94.8735 48.6972 95.8361 49.0669 96.5777 49.7349C97.201 50.5043 97.5411 51.4644 97.5411 52.4546C97.5411 53.4448 97.201 54.4049 96.5777 55.1744Z" fill="#1C3554"/>
<path d="M116.163 46.9915H116.105C115.894 46.6941 115.648 46.4227 115.373 46.1827C115.039 45.888 114.67 45.6363 114.274 45.4335C113.273 44.9199 112.162 44.6582 111.037 44.671C110.052 44.6537 109.077 44.8793 108.199 45.3278C107.38 45.7515 106.658 46.3387 106.076 47.053C105.483 47.7893 105.028 48.627 104.733 49.5254C104.419 50.4511 104.259 51.4218 104.26 52.3991C104.248 53.4482 104.424 54.4909 104.779 55.4781C105.101 56.379 105.602 57.2051 106.253 57.9063C106.901 58.5925 107.688 59.133 108.561 59.492C109.51 59.8789 110.528 60.0709 111.553 60.0565C112.311 60.0434 113.06 59.8935 113.765 59.6141C114.556 59.3143 115.241 58.7885 115.735 58.1024H115.796V59.5392C115.814 60.0185 115.735 60.4963 115.564 60.9445C115.394 61.3928 115.135 61.8024 114.804 62.1491C114.384 62.521 113.892 62.8037 113.359 62.9801C112.827 63.1565 112.264 63.223 111.704 63.1754C110.818 63.1854 109.939 63.0084 109.125 62.6561C108.316 62.2944 107.56 61.8218 106.881 61.2521L104.347 65.0341C105.383 65.8683 106.593 66.4581 107.889 66.7593C109.17 67.0541 110.482 67.2025 111.797 67.2017C114.687 67.2017 116.839 66.474 118.253 65.0187C119.668 63.5634 120.375 61.4314 120.376 58.6227V45.0374H116.168L116.163 46.9915ZM115.888 53.7539C115.707 54.1883 115.442 54.5828 115.109 54.9146C114.769 55.253 114.371 55.527 113.934 55.7234C113.479 55.925 112.988 56.0292 112.491 56.0292C111.994 56.0292 111.503 55.925 111.049 55.7234C110.617 55.5243 110.224 55.2505 109.888 54.9146C109.553 54.58 109.287 54.1826 109.106 53.7451C108.924 53.3077 108.831 52.8388 108.831 52.3653C108.831 51.8917 108.924 51.4228 109.106 50.9854C109.287 50.548 109.553 50.1505 109.888 49.8159C110.224 49.48 110.617 49.2059 111.049 49.0061C111.503 48.8051 111.994 48.7013 112.491 48.7013C112.988 48.7013 113.479 48.8051 113.934 49.0061C114.371 49.2032 114.769 49.4775 115.109 49.8159C115.613 50.3223 115.955 50.9663 116.094 51.667C116.233 52.3678 116.161 53.0938 115.888 53.7539Z" fill="#1C3554"/>
<path d="M137.58 46.7935C136.817 46.1005 135.925 45.5657 134.954 45.2201C132.869 44.488 130.597 44.488 128.512 45.2201C127.541 45.5654 126.648 46.1002 125.886 46.7935C125.138 47.4829 124.541 48.3194 124.131 49.2505C123.707 50.2662 123.49 51.3557 123.49 52.4562C123.49 53.5566 123.707 54.6461 124.131 55.6619C124.539 56.5956 125.137 57.4344 125.886 58.125C126.648 58.819 127.541 59.3536 128.512 59.6973C130.597 60.4308 132.87 60.4308 134.954 59.6973C135.926 59.3533 136.818 58.8188 137.58 58.125C138.329 57.4344 138.927 56.5956 139.335 55.6619C139.758 54.6461 139.976 53.5566 139.976 52.4562C139.976 51.3557 139.758 50.2662 139.335 49.2505C138.925 48.3194 138.328 47.4829 137.58 46.7935ZM134.435 55.1744C133.694 55.8423 132.731 56.212 131.733 56.212C130.735 56.212 129.772 55.8423 129.031 55.1744C128.407 54.4049 128.067 53.4448 128.067 52.4546C128.067 51.4644 128.407 50.5043 129.031 49.7349C129.772 49.0669 130.735 48.6972 131.733 48.6972C132.731 48.6972 133.694 49.0669 134.435 49.7349C135.058 50.5043 135.398 51.4644 135.398 52.4546C135.398 53.4448 135.058 54.4049 134.435 55.1744Z" fill="#1C3554"/>
<path d="M146.051 45.1401H143.595V59.875H146.051V45.1401Z" fill="#1C3554"/>
<path d="M144.824 37.5843C144.586 37.5798 144.349 37.625 144.129 37.7171C143.91 37.8091 143.712 37.946 143.548 38.119C143.298 38.3708 143.129 38.6908 143.061 39.0388C142.992 39.3868 143.029 39.7472 143.165 40.0745C143.302 40.4019 143.532 40.6815 143.827 40.8782C144.122 41.0749 144.469 41.1799 144.823 41.1799C145.178 41.1799 145.524 41.0749 145.819 40.8782C146.115 40.6815 146.345 40.4019 146.481 40.0745C146.617 39.7472 146.654 39.3868 146.586 39.0388C146.518 38.6908 146.348 38.3708 146.098 38.119C145.935 37.946 145.737 37.809 145.518 37.7169C145.298 37.6248 145.062 37.5797 144.824 37.5843Z" fill="#1C3554"/>
<path d="M164.218 46.9711C163.527 46.2657 162.696 45.713 161.778 45.3485C160.771 44.9515 159.697 44.7539 158.614 44.7666C157.594 44.7549 156.586 44.9815 155.67 45.4285C154.767 45.8774 153.968 46.5098 153.324 47.2851H153.258V45.1401H150.805V67.054H153.258V57.263H153.32C153.842 58.161 154.602 58.897 155.516 59.3895C156.577 59.9837 157.778 60.2828 158.994 60.2557C159.989 60.262 160.976 60.0636 161.891 59.6728C162.775 59.2978 163.573 58.7459 164.236 58.0512C164.91 57.3412 165.439 56.5075 165.795 55.5963C166.551 53.6082 166.551 51.4121 165.795 49.424C165.436 48.5106 164.9 47.6771 164.218 46.9711ZM163.352 54.6685C163.123 55.31 162.765 55.8978 162.299 56.3955C161.834 56.8931 161.272 57.29 160.647 57.5617C159.266 58.1273 157.718 58.1273 156.337 57.5617C155.711 57.29 155.148 56.8928 154.682 56.3946C154.217 55.8964 153.858 55.3078 153.629 54.6654C153.147 53.269 153.147 51.7513 153.629 50.3549C153.858 49.7124 154.217 49.1239 154.682 48.6257C155.148 48.1275 155.711 47.7302 156.337 47.4586C157.718 46.8929 159.266 46.8929 160.647 47.4586C161.273 47.7302 161.836 48.1275 162.302 48.6257C162.767 49.1239 163.126 49.7124 163.355 50.3549C163.837 51.7513 163.837 53.269 163.355 54.6654L163.352 54.6685Z" fill="#1C3554"/>
<path d="M178.733 52.5131C178.267 52.1641 177.747 51.8931 177.193 51.7105C176.586 51.5056 175.965 51.3424 175.336 51.222C174.864 51.1413 174.396 51.0365 173.935 50.9079C173.524 50.7963 173.123 50.6486 172.738 50.4666C172.43 50.3267 172.151 50.1288 171.917 49.8837C171.718 49.6644 171.611 49.3771 171.619 49.0811C171.614 48.7617 171.707 48.4485 171.886 48.1841C172.063 47.9229 172.294 47.7027 172.563 47.5385C172.851 47.3644 173.165 47.2369 173.493 47.1609C173.828 47.0778 174.173 47.0354 174.519 47.0346C175.177 47.0142 175.828 47.1838 176.392 47.5232C176.901 47.8438 177.328 48.2806 177.636 48.7978L179.682 47.4441C179.229 46.5494 178.492 45.8296 177.588 45.3966C176.676 44.9731 175.681 44.7582 174.676 44.7675C173.994 44.7659 173.316 44.8612 172.661 45.0508C172.034 45.2297 171.438 45.5069 170.897 45.8718C170.38 46.2212 169.949 46.6842 169.638 47.2255C169.316 47.802 169.153 48.4537 169.166 49.1139C169.14 49.7602 169.287 50.4017 169.591 50.9726C169.868 51.4501 170.255 51.8547 170.719 52.1529C171.233 52.4764 171.789 52.7256 172.372 52.8928C173.002 53.0817 173.663 53.2497 174.356 53.3968C174.755 53.4809 175.144 53.5753 175.521 53.68C175.874 53.7749 176.213 53.9179 176.528 54.1049C176.806 54.2696 177.047 54.4893 177.237 54.7505C177.426 55.0398 177.519 55.3811 177.504 55.7265C177.516 56.0893 177.417 56.4471 177.221 56.7528C177.026 57.0425 176.768 57.2846 176.466 57.461C176.139 57.6556 175.783 57.7943 175.411 57.8715C175.033 57.9544 174.648 57.9968 174.261 57.9977C173.496 58.0273 172.738 57.8417 172.073 57.462C171.462 57.0728 170.923 56.5787 170.483 56.0026L168.533 57.5143C169.137 58.4518 169.994 59.199 171.005 59.6696C172.041 60.0808 173.149 60.2791 174.263 60.2525C174.989 60.2532 175.712 60.1688 176.419 60.0011C177.09 59.8458 177.73 59.5742 178.308 59.1985C178.86 58.8319 179.318 58.3395 179.642 57.7617C179.995 57.1059 180.169 56.3691 180.147 55.6249C180.167 54.9851 180.038 54.3495 179.77 53.7683C179.525 53.2756 179.171 52.846 178.733 52.5131Z" fill="#1C3554"/>
<path d="M196.427 56.3803V45.1401H193.971V52.3243C193.979 53.0989 193.889 53.8713 193.703 54.6233C193.546 55.2679 193.267 55.8767 192.882 56.4173C192.516 56.9198 192.028 57.3208 191.465 57.5822C190.816 57.8701 190.112 58.0104 189.403 57.9927C188.923 58.0315 188.441 57.9545 187.997 57.7682C187.553 57.5819 187.161 57.2918 186.852 56.9222C186.262 56.0639 185.974 55.0341 186.031 53.9942V45.1401H183.575V54.2395C183.568 55.0643 183.679 55.8859 183.906 56.679C184.103 57.3821 184.454 58.0329 184.932 58.5849C185.411 59.1245 186.008 59.546 186.677 59.8165C187.474 60.1275 188.325 60.2775 189.18 60.2578C189.755 60.2624 190.328 60.1826 190.881 60.0207C191.379 59.8755 191.855 59.6639 192.297 59.3916C192.699 59.1441 193.064 58.8423 193.383 58.4946C193.67 58.1852 193.909 57.8348 194.092 57.4549H194.155C194.155 57.8757 194.165 58.2862 194.186 58.6865C194.208 59.0867 194.218 59.4856 194.217 59.8832H196.548C196.548 59.3994 196.527 58.864 196.484 58.277C196.442 57.6899 196.423 57.0577 196.427 56.3803Z" fill="#1C3554"/>
<path d="M222.969 48.3679C222.805 47.6549 222.482 46.9882 222.024 46.4179C221.562 45.866 220.966 45.4419 220.293 45.1863C219.445 44.8805 218.548 44.7364 217.648 44.7614C216.67 44.7187 215.703 44.977 214.877 45.5014C214.111 46.0507 213.468 46.7532 212.988 47.5643C212.863 47.3118 212.7 47.023 212.5 46.698C212.277 46.3471 211.995 46.038 211.666 45.7846C211.261 45.4771 210.811 45.2347 210.331 45.0662C209.687 44.8497 209.01 44.7482 208.331 44.7665C207.756 44.7618 207.183 44.8417 206.631 45.0036C206.133 45.1488 205.656 45.3604 205.214 45.6327C204.813 45.8805 204.447 46.1823 204.128 46.5297C203.842 46.8391 203.603 47.1895 203.42 47.5694H203.356C203.356 47.1486 203.346 46.7401 203.326 46.3378C203.305 45.9355 203.294 45.5404 203.294 45.1411H200.964C200.964 45.6249 200.985 46.1603 201.027 46.7473C201.068 47.3344 201.089 47.9642 201.089 48.6368V59.8759H203.547V52.6979C203.54 51.923 203.63 51.1503 203.815 50.3979C203.972 49.753 204.251 49.1441 204.636 48.6039C205.001 48.1012 205.489 47.7002 206.053 47.439C206.701 47.1509 207.406 47.0107 208.115 47.0285C208.536 46.9926 208.958 47.0687 209.34 47.2489C209.721 47.4292 210.048 47.7073 210.287 48.0548C210.814 49.1347 211.043 50.336 210.949 51.5341V59.878H213.4V51.3739C213.393 50.7679 213.494 50.1655 213.7 49.5953C213.882 49.0899 214.161 48.6248 214.521 48.2262C214.861 47.8531 215.273 47.5532 215.733 47.3446C216.198 47.1342 216.702 47.0267 217.213 47.0296C217.819 47.0075 218.423 47.1259 218.976 47.3754C219.412 47.5861 219.79 47.9 220.077 48.2899C220.354 48.6758 220.547 49.1152 220.645 49.5799C220.75 50.0662 220.802 50.5624 220.802 51.0599V59.8759H223.253V50.9337C223.262 50.0701 223.167 49.2086 222.969 48.3679Z" fill="#1C3554"/>
</g>
</svg>
