<svg width="26" height="26" viewBox="0 0 26 26" fill="none" xmlns="http://www.w3.org/2000/svg">
<path fill-rule="evenodd" clip-rule="evenodd" d="M13.0001 25.8334C5.91243 25.8334 0.166748 20.0877 0.166748 13.0001C0.166748 5.91243 5.91243 0.166748 13.0001 0.166748C20.0877 0.166748 25.8334 5.91243 25.8334 13.0001C25.8334 20.0877 20.0877 25.8334 13.0001 25.8334ZM21.6328 18.9788C22.8101 17.2821 23.5001 15.2217 23.5001 13.0001C23.5001 7.20109 18.7991 2.50008 13.0001 2.50008C7.20109 2.50008 2.50008 7.20109 2.50008 13.0001C2.50008 15.2217 3.19003 17.2821 4.36734 18.9788C5.68036 17.2445 8.76579 16.5001 13.0001 16.5001C17.2344 16.5001 20.3198 17.2445 21.6328 18.9788ZM19.9589 20.8631C19.6174 19.6353 17.1644 18.8334 13.0001 18.8334C8.8358 18.8334 6.38275 19.6353 6.04129 20.8631C7.89393 22.504 10.3307 23.5001 13.0001 23.5001C15.6695 23.5001 18.1062 22.504 19.9589 20.8631ZM13.0001 16.5001C10.3878 16.5001 8.33342 14.6654 8.33342 10.6667C8.33342 8.04847 10.1757 6.00008 13.0001 6.00008C15.8166 6.00008 17.6667 8.24192 17.6667 10.9001C17.6667 14.7263 15.5878 16.5001 13.0001 16.5001ZM10.6667 10.6667C10.6667 13.3142 11.6213 14.1667 13.0001 14.1667C14.3741 14.1667 15.3334 13.3482 15.3334 10.9001C15.3334 9.44223 14.4183 8.33342 13.0001 8.33342C11.5228 8.33342 10.6667 9.28521 10.6667 10.6667Z" fill="white"/>
</svg>
