<svg width="88" height="88" viewBox="0 0 88 88" fill="none" xmlns="http://www.w3.org/2000/svg">
<rect x="31.0273" width="64" height="64" rx="8" transform="rotate(29 31.0273 0)" fill="#F72585"/>
<path fill-rule="evenodd" clip-rule="evenodd" d="M26.5831 48.3529C26.0066 46.3426 26.7292 44.1641 28.5696 41.8004C27.3081 39.0832 27.0941 36.798 28.108 34.969C29.1218 33.1399 31.1732 32.1104 34.146 31.7404C35.1752 28.927 36.6398 27.1599 38.6501 26.5834C40.6603 26.007 42.8388 26.7295 45.2025 28.57C47.9197 27.3084 50.2049 27.0945 52.0339 28.1083C53.863 29.1222 54.8925 31.1735 55.2625 34.1463C58.0759 35.1756 59.8431 36.6402 60.4195 38.6504C60.9959 40.6607 60.2734 42.8392 58.4329 45.2029C59.6945 47.92 59.9085 50.2052 58.8946 52.0343C57.8807 53.8633 55.8294 54.8929 52.8566 55.2629C51.8273 58.0763 50.3627 59.8434 48.3525 60.4199C46.3423 60.9963 44.1638 60.2738 41.8 58.4333C39.0829 59.6949 36.7977 59.9088 34.9686 58.895C33.1396 57.8811 32.11 55.8298 31.74 52.857C28.9267 51.8277 27.1595 50.3631 26.5831 48.3529ZM33.6989 50.1382C34.3344 50.3315 34.7844 50.8972 34.8297 51.5599C35.0067 54.1474 35.6351 55.6056 36.52 56.0962C37.405 56.5867 38.9746 56.3469 41.2627 55.1257C41.8487 54.813 42.567 54.8949 43.0676 55.3314C45.0224 57.0359 46.4979 57.6227 47.4705 57.3438C48.4431 57.0649 49.3834 55.7854 50.1379 53.304C50.3311 52.6685 50.8969 52.2185 51.5595 52.1732C54.147 51.9962 55.6053 51.3678 56.0958 50.4829C56.5863 49.598 56.3465 48.0283 55.1254 45.7402C54.8127 45.1542 54.8945 44.4359 55.331 43.9353C57.0356 41.9805 57.6223 40.5051 57.3435 39.5325C57.0646 38.5599 55.7851 37.6195 53.3037 36.8651C52.6682 36.6718 52.2181 36.1061 52.1728 35.4434C51.9959 32.8559 51.3675 31.3976 50.4825 30.9071C49.5976 30.4166 48.0279 30.6564 45.7398 31.8775C45.1538 32.1903 44.4356 32.1084 43.935 31.6719C41.9802 29.9674 40.5047 29.3806 39.5321 29.6595C38.5595 29.9384 37.6192 31.2179 36.8647 33.6993C36.6715 34.3348 36.1057 34.7848 35.4431 34.8301C32.8555 35.007 31.3973 35.6355 30.9068 36.5204C30.4162 37.4053 30.6561 38.975 31.8772 41.2631C32.1899 41.8491 32.1081 42.5673 31.6715 43.068C29.967 45.0227 29.3802 46.4982 29.6591 47.4708C29.938 48.4434 31.2175 49.3838 33.6989 50.1382ZM50.9849 40.8682L41.6475 43.5457L40.2174 38.5584L37.1414 39.4405L39.4535 47.5038L51.867 43.9443L50.9849 40.8682Z" fill="#FFF5F9"/>
</svg>
