<svg width="84" height="84" viewBox="0 0 84 84" fill="none" xmlns="http://www.w3.org/2000/svg">
<rect y="23.9749" width="64" height="64" rx="8" transform="rotate(-22 0 23.9749)" fill="#4586D6"/>
<path fill-rule="evenodd" clip-rule="evenodd" d="M50.843 34.4947C48.41 28.4729 43.4008 25.635 38.5973 26.1162C38.2791 25.7765 37.882 25.5017 37.4209 25.3227C35.8455 24.7111 34.0661 25.43 33.3577 26.9643C33.1508 27.4124 33.0561 27.8849 33.0627 28.3493C29.2653 31.3367 27.6341 36.8468 30.0741 42.8859C31.6527 46.7932 31.7496 49.301 30.9323 51.4768C30.7957 51.8406 30.3806 52.7152 30.0995 53.3077L30.0994 53.3077C29.9664 53.588 29.8634 53.8051 29.834 53.8751L29.5818 54.4809L31.6257 59.5398L40.6572 55.8909C41.5992 57.343 42.8799 58.0517 44.807 58.3705C47.1777 58.7627 49.5686 57.7966 51.0015 55.8678C52.0295 54.484 52.4273 52.8348 52.2082 51.2239L61.2956 47.5524L59.2517 42.4935L58.6495 42.2329C58.5861 42.2055 58.3706 42.1241 58.0888 42.0176L58.0884 42.0175L58.0878 42.0173L58.0877 42.0172C57.4753 41.7859 56.5507 41.4367 56.1939 41.2664C54.0906 40.2619 52.4161 38.3883 50.843 34.4947ZM49.0371 52.5052L43.7587 54.6378C44.1258 54.943 44.602 55.0931 45.3293 55.2134C46.517 55.4099 47.7149 54.9259 48.4327 53.9595C48.7651 53.512 48.966 53.0165 49.0371 52.5052ZM54.8149 44.154C55.2649 44.3688 56.1858 44.7218 56.7929 44.9502L57.1299 45.7842L33.394 55.3741L33.0573 54.5408C33.3339 53.9609 33.7534 53.0669 33.928 52.602C35.0385 49.6454 34.9098 46.3124 33.0411 41.6871C30.7754 36.0794 32.9129 31.4063 36.8697 29.8077C40.8154 28.2135 45.6171 30.1025 47.876 35.6934C49.7387 40.3038 51.9622 42.7916 54.8149 44.154Z" fill="white"/>
</svg>
