<svg width="82" height="82" viewBox="0 0 82 82" fill="none" xmlns="http://www.w3.org/2000/svg">
<rect y="21.3635" width="64" height="64" rx="8" transform="rotate(-19.5 0 21.3635)" fill="#021934"/>
<path fill-rule="evenodd" clip-rule="evenodd" d="M42.3728 23.3321C40.1894 24.1053 38.8741 24.8638 37.5404 26.2248C37.0466 26.7287 36.6108 27.2793 36.2359 27.8744C35.5982 27.6638 34.9412 27.5184 34.2683 27.438C32.3355 27.2069 30.755 27.4462 28.65 28.1916C23.012 30.1881 20.5693 36.3103 22.7177 42.3773C24.3402 46.9591 28.4622 50.4804 34.7362 53.0751C38.0294 54.437 42.0057 55.5308 44.7084 55.9047L46.2547 56.1187L47.3218 54.9793C49.1869 52.9878 51.5887 49.6354 53.2909 46.5045C56.5338 40.5397 57.5212 35.2091 55.8987 30.6273C53.773 24.6245 47.9686 21.3766 42.3728 23.3321ZM52.8822 31.6955C54.1534 35.2851 53.3292 39.7345 50.4795 44.976C48.9259 47.8338 46.7207 50.9207 45.0517 52.7215C42.6214 52.3723 38.965 51.3611 35.9591 50.118C30.4459 47.8379 27.0053 44.8987 25.7342 41.3091C24.1468 36.8264 25.8406 32.5812 29.7181 31.2081C31.3919 30.6154 32.4935 30.4486 33.8884 30.6153C34.7124 30.7138 35.4942 30.9523 36.2332 31.3346L37.7622 32.1254L38.4393 30.5428C38.7771 29.7534 39.24 29.0624 39.8259 28.4645C40.7784 27.4925 41.6821 26.9714 43.4348 26.3508C47.27 25.0105 51.3169 27.275 52.8822 31.6955Z" fill="white"/>
</svg>
