<svg width="54" height="38" viewBox="0 0 54 38" fill="none" xmlns="http://www.w3.org/2000/svg">
<path fill-rule="evenodd" clip-rule="evenodd" d="M18.9999 23.6667C12.7599 23.6667 0.333252 26.7867 0.333252 33V37.6667H37.6666V33C37.6666 26.7867 25.2399 23.6667 18.9999 23.6667ZM6.57325 32.3333C8.81325 30.7867 14.2266 29 18.9999 29C23.7733 29 29.1866 30.7867 31.4266 32.3333H6.57325ZM18.9999 19C24.1466 19 28.3333 14.8133 28.3333 9.66666C28.3333 4.52 24.1466 0.333328 18.9999 0.333328C13.8533 0.333328 9.66659 4.52 9.66659 9.66666C9.66659 14.8133 13.8533 19 18.9999 19ZM18.9999 5.66666C21.2133 5.66666 22.9999 7.45333 22.9999 9.66666C22.9999 11.88 21.2133 13.6667 18.9999 13.6667C16.7866 13.6667 14.9999 11.88 14.9999 9.66666C14.9999 7.45333 16.7866 5.66666 18.9999 5.66666ZM37.7733 23.8267C40.8666 26.0667 42.9999 29.0533 42.9999 33V37.6667H53.6666V33C53.6666 27.6133 44.3333 24.5467 37.7733 23.8267ZM34.9999 19C40.1466 19 44.3333 14.8133 44.3333 9.66666C44.3333 4.52 40.1466 0.333328 34.9999 0.333328C33.5599 0.333328 32.2266 0.679995 30.9999 1.26666C32.6799 3.63999 33.6666 6.54666 33.6666 9.66666C33.6666 12.7867 32.6799 15.6933 30.9999 18.0667C32.2266 18.6533 33.5599 19 34.9999 19Z" fill="#F72585"/>
</svg>
