<svg width="60" height="60" viewBox="0 0 60 60" fill="none" xmlns="http://www.w3.org/2000/svg">
<path fill-rule="evenodd" clip-rule="evenodd" d="M30.0001 59.3333C13.7997 59.3333 0.666748 46.2004 0.666748 30C0.666748 13.7997 13.7997 0.666672 30.0001 0.666672C46.2004 0.666672 59.3334 13.7997 59.3334 30C59.3334 46.2004 46.2004 59.3333 30.0001 59.3333ZM49.7321 43.6657C52.4231 39.7875 54.0001 35.0779 54.0001 30C54.0001 16.7452 43.2549 6 30.0001 6C16.7452 6 6.00008 16.7452 6.00008 30C6.00008 35.0779 7.5771 39.7875 10.2681 43.6657C13.2693 39.7015 20.3217 38 30.0001 38C39.6785 38 46.7309 39.7015 49.7321 43.6657ZM45.9059 47.9727C45.1254 45.1663 39.5184 43.3333 30.0001 43.3333C20.4817 43.3333 14.8748 45.1663 14.0943 47.9727C18.3289 51.7231 23.8986 54 30.0001 54C36.1016 54 41.6713 51.7231 45.9059 47.9727ZM30.0001 38C24.0291 38 19.3334 33.8063 19.3334 24.6667C19.3334 18.682 23.5443 14 30.0001 14C36.4379 14 40.6667 19.1242 40.6667 25.2C40.6667 33.9456 35.915 38 30.0001 38ZM24.6667 24.6667C24.6667 30.718 26.8486 32.6667 30.0001 32.6667C33.1406 32.6667 35.3334 30.7957 35.3334 25.2C35.3334 21.8678 33.2418 19.3333 30.0001 19.3333C26.6234 19.3333 24.6667 21.5089 24.6667 24.6667Z" fill="#F72585"/>
</svg>
