<svg width="42" height="27" viewBox="0 0 42 27" fill="none" xmlns="http://www.w3.org/2000/svg">
<path d="M9.088 16.04C9.088 16.8613 8.77333 17.56 8.144 18.136C7.51467 18.7013 6.592 19.016 5.376 19.08V20.92H4.576V19.096C3.79733 19.0533 3.06133 18.904 2.368 18.648C1.68533 18.3813 1.14667 18.0453 0.752 17.64L1.216 16.728C1.58933 17.0907 2.07467 17.3947 2.672 17.64C3.28 17.8853 3.91467 18.0293 4.576 18.072V13.864C3.84 13.6827 3.22667 13.4907 2.736 13.288C2.24533 13.0747 1.83467 12.7707 1.504 12.376C1.184 11.9707 1.024 11.4373 1.024 10.776C1.024 9.95467 1.32267 9.26667 1.92 8.712C2.51733 8.14667 3.40267 7.816 4.576 7.72V5.88H5.376V7.704C5.984 7.72533 6.57067 7.82667 7.136 8.008C7.712 8.17867 8.208 8.408 8.624 8.696L8.224 9.64C7.78667 9.36267 7.32267 9.144 6.832 8.984C6.34133 8.824 5.856 8.73333 5.376 8.712V12.952C6.16533 13.144 6.81067 13.3413 7.312 13.544C7.81333 13.736 8.23467 14.0347 8.576 14.44C8.91733 14.8453 9.088 15.3787 9.088 16.04ZM2.192 10.744C2.192 11.2987 2.39467 11.72 2.8 12.008C3.216 12.296 3.808 12.5413 4.576 12.744V8.744C3.78667 8.808 3.18933 9.02667 2.784 9.4C2.38933 9.76267 2.192 10.2107 2.192 10.744ZM5.376 18.072C6.21867 18.008 6.85333 17.8 7.28 17.448C7.70667 17.096 7.92 16.648 7.92 16.104C7.92 15.528 7.70133 15.096 7.264 14.808C6.82667 14.52 6.19733 14.2747 5.376 14.072V18.072ZM15.3158 12.296C16.0518 12.296 16.7024 12.4347 17.2678 12.712C17.8438 12.9893 18.2918 13.384 18.6118 13.896C18.9318 14.3973 19.0918 14.984 19.0918 15.656C19.0918 16.3387 18.9264 16.9413 18.5958 17.464C18.2651 17.9867 17.8064 18.392 17.2198 18.68C16.6438 18.9573 15.9931 19.096 15.2678 19.096C13.7851 19.096 12.6491 18.6107 11.8598 17.64C11.0704 16.6587 10.6758 15.2773 10.6758 13.496C10.6758 12.248 10.8891 11.192 11.3158 10.328C11.7424 9.464 12.3398 8.81333 13.1078 8.376C13.8758 7.928 14.7718 7.704 15.7958 7.704C16.9051 7.704 17.7904 7.90667 18.4518 8.312L17.9878 9.24C17.4544 8.888 16.7291 8.712 15.8118 8.712C14.5744 8.712 13.6038 9.10667 12.8998 9.896C12.1958 10.6747 11.8438 11.8107 11.8438 13.304C11.8438 13.5707 11.8598 13.8747 11.8918 14.216C12.1691 13.608 12.6118 13.1387 13.2198 12.808C13.8278 12.4667 14.5264 12.296 15.3158 12.296ZM15.2198 18.12C16.0304 18.12 16.6864 17.9013 17.1878 17.464C17.6998 17.016 17.9558 16.424 17.9558 15.688C17.9558 14.952 17.6998 14.3653 17.1878 13.928C16.6864 13.4907 16.0038 13.272 15.1398 13.272C14.5744 13.272 14.0731 13.3787 13.6358 13.592C13.2091 13.8053 12.8731 14.0987 12.6278 14.472C12.3824 14.8453 12.2598 15.2613 12.2598 15.72C12.2598 16.1467 12.3718 16.5413 12.5958 16.904C12.8304 17.2667 13.1718 17.56 13.6198 17.784C14.0678 18.008 14.6011 18.12 15.2198 18.12ZM29.9458 16.056H27.7058V19H26.5538V16.056H20.2338V15.224L26.1698 7.8H27.4498L21.7218 15.032H26.5858V12.44H27.7058V15.032H29.9458V16.056ZM35.4679 19.096C34.6039 19.096 33.8305 18.8667 33.1479 18.408C32.4759 17.9493 31.9479 17.2933 31.5639 16.44C31.1905 15.576 31.0039 14.5627 31.0039 13.4C31.0039 12.2373 31.1905 11.2293 31.5639 10.376C31.9479 9.512 32.4759 8.85067 33.1479 8.392C33.8305 7.93333 34.6039 7.704 35.4679 7.704C36.3319 7.704 37.0999 7.93333 37.7719 8.392C38.4545 8.85067 38.9879 9.512 39.3719 10.376C39.7559 11.2293 39.9479 12.2373 39.9479 13.4C39.9479 14.5627 39.7559 15.576 39.3719 16.44C38.9879 17.2933 38.4545 17.9493 37.7719 18.408C37.0999 18.8667 36.3319 19.096 35.4679 19.096ZM35.4679 18.04C36.1185 18.04 36.6892 17.8587 37.1799 17.496C37.6812 17.1333 38.0705 16.6053 38.3479 15.912C38.6252 15.2187 38.7639 14.3813 38.7639 13.4C38.7639 12.4187 38.6252 11.5813 38.3479 10.888C38.0705 10.1947 37.6812 9.66667 37.1799 9.304C36.6892 8.94133 36.1185 8.76 35.4679 8.76C34.8172 8.76 34.2412 8.94133 33.7399 9.304C33.2492 9.66667 32.8652 10.1947 32.5879 10.888C32.3105 11.5813 32.1719 12.4187 32.1719 13.4C32.1719 14.3813 32.3105 15.2187 32.5879 15.912C32.8652 16.6053 33.2492 17.1333 33.7399 17.496C34.2412 17.8587 34.8172 18.04 35.4679 18.04Z" fill="#CCCCCC"/>
<line x1="4.38601e-08" y1="13.5" x2="40.1361" y2="13.5" stroke="#CCCCCC"/>
</svg>
