<svg width="97" height="16" viewBox="0 0 97 16" fill="none" xmlns="http://www.w3.org/2000/svg">
<path fill-rule="evenodd" clip-rule="evenodd" d="M8.08141 12.8589L13.0422 16L11.7258 10.08L16.1086 6.09684L10.3371 5.58316L8.08141 0L5.82576 5.58316L0.0541992 6.09684L4.43706 10.08L3.12059 16L8.08141 12.8589Z" fill="#FAA307"/>
<path fill-rule="evenodd" clip-rule="evenodd" d="M28.1498 12.8589L33.1106 16L31.7941 10.08L36.177 6.09684L30.4054 5.58316L28.1498 0L25.8941 5.58316L20.1226 6.09684L24.5054 10.08L23.189 16L28.1498 12.8589Z" fill="#FAA307"/>
<path fill-rule="evenodd" clip-rule="evenodd" d="M48.2176 12.8589L53.1785 16L51.862 10.08L56.2449 6.09684L50.4733 5.58316L48.2176 0L45.962 5.58316L40.1904 6.09684L44.5733 10.08L43.2568 16L48.2176 12.8589Z" fill="#FAA307"/>
<path fill-rule="evenodd" clip-rule="evenodd" d="M68.2858 12.8589L73.2466 16L71.9301 10.08L76.313 6.09684L70.5414 5.58316L68.2858 0L66.0301 5.58316L60.2585 6.09684L64.6414 10.08L63.3249 16L68.2858 12.8589Z" fill="#FAA307"/>
<path fill-rule="evenodd" clip-rule="evenodd" d="M88.3536 12.8589L93.3144 16L91.998 10.08L96.3808 6.09684L90.6093 5.58316L88.3536 0L86.098 5.58316L80.3264 6.09684L84.7093 10.08L83.3928 16L88.3536 12.8589Z" fill="#FAA307"/>
</svg>
