<svg width="184" height="117" viewBox="0 0 184 117" fill="none" xmlns="http://www.w3.org/2000/svg">
<rect width="184" height="117" rx="8" fill="white"/>
<path d="M28 77L30.6942 85.2918H39.4127L32.3593 90.4164L35.0534 98.7082L28 93.5836L20.9466 98.7082L23.6407 90.4164L16.5873 85.2918H25.3058L28 77Z" fill="#FAA307"/>
<path d="M60 77L62.6942 85.2918H71.4127L64.3593 90.4164L67.0534 98.7082L60 93.5836L52.9466 98.7082L55.6407 90.4164L48.5873 85.2918H57.3058L60 77Z" fill="#FAA307"/>
<path d="M92 77L94.6942 85.2918H103.413L96.3593 90.4164L99.0534 98.7082L92 93.5836L84.9466 98.7082L87.6407 90.4164L80.5873 85.2918H89.3058L92 77Z" fill="#FAA307"/>
<path d="M124 77L126.694 85.2918H135.413L128.359 90.4164L131.053 98.7082L124 93.5836L116.947 98.7082L119.641 90.4164L112.587 85.2918H121.306L124 77Z" fill="#FAA307"/>
<path d="M156 77L158.694 85.2918H167.413L160.359 90.4164L163.053 98.7082L156 93.5836L148.947 98.7082L151.641 90.4164L144.587 85.2918H153.306L156 77Z" fill="#FAA307"/>
<path d="M67.68 40.264C66.176 40.264 64.92 40.032 63.912 39.568C62.904 39.088 62.136 38.472 61.608 37.72C61.096 36.952 60.824 36.128 60.792 35.248C60.792 35.104 60.84 34.984 60.936 34.888C61.032 34.792 61.152 34.744 61.296 34.744H64.512C64.72 34.744 64.88 34.784 64.992 34.864C65.12 34.944 65.216 35.056 65.28 35.2C65.424 35.568 65.616 35.872 65.856 36.112C66.096 36.352 66.368 36.528 66.672 36.64C66.976 36.752 67.32 36.808 67.704 36.808C68.152 36.808 68.568 36.712 68.952 36.52C69.336 36.328 69.64 36.048 69.864 35.68C70.104 35.296 70.224 34.84 70.224 34.312C70.224 33.832 70.112 33.416 69.888 33.064C69.68 32.712 69.384 32.432 69 32.224C68.632 32.016 68.2 31.912 67.704 31.912C67.32 31.912 67.008 31.96 66.768 32.056C66.528 32.136 66.328 32.24 66.168 32.368C66.008 32.496 65.864 32.608 65.736 32.704C65.608 32.784 65.464 32.824 65.304 32.824H62.16C62.016 32.824 61.888 32.776 61.776 32.68C61.68 32.568 61.632 32.44 61.632 32.296L62.496 23.92C62.528 23.68 62.616 23.504 62.76 23.392C62.904 23.264 63.08 23.2 63.288 23.2H72.912C73.088 23.2 73.232 23.256 73.344 23.368C73.472 23.48 73.536 23.624 73.536 23.8V26.056C73.536 26.232 73.472 26.376 73.344 26.488C73.232 26.6 73.088 26.656 72.912 26.656H65.952L65.64 29.752C65.992 29.528 66.4 29.336 66.864 29.176C67.344 29.016 68 28.936 68.832 28.936C69.584 28.936 70.304 29.072 70.992 29.344C71.696 29.6 72.32 29.968 72.864 30.448C73.424 30.928 73.856 31.504 74.16 32.176C74.48 32.832 74.64 33.576 74.64 34.408C74.64 35.544 74.36 36.552 73.8 37.432C73.256 38.312 72.464 39.008 71.424 39.52C70.384 40.016 69.136 40.264 67.68 40.264ZM83.6516 40.24C82.4996 40.24 81.4996 40.08 80.6516 39.76C79.8196 39.424 79.1236 38.968 78.5636 38.392C78.0036 37.816 77.5796 37.144 77.2916 36.376C77.0036 35.608 76.8356 34.784 76.7876 33.904C76.7716 33.472 76.7556 32.984 76.7396 32.44C76.7396 31.88 76.7396 31.32 76.7396 30.76C76.7556 30.184 76.7716 29.672 76.7876 29.224C76.8356 28.344 77.0036 27.528 77.2916 26.776C77.5956 26.008 78.0276 25.344 78.5876 24.784C79.1636 24.208 79.8676 23.76 80.6996 23.44C81.5476 23.12 82.5316 22.96 83.6516 22.96C84.7876 22.96 85.7716 23.12 86.6036 23.44C87.4516 23.76 88.1556 24.208 88.7156 24.784C89.2756 25.344 89.7076 26.008 90.0116 26.776C90.3156 27.528 90.4916 28.344 90.5396 29.224C90.5556 29.672 90.5636 30.184 90.5636 30.76C90.5796 31.32 90.5796 31.88 90.5636 32.44C90.5636 32.984 90.5556 33.472 90.5396 33.904C90.4916 34.784 90.3156 35.608 90.0116 36.376C89.7236 37.144 89.2996 37.816 88.7396 38.392C88.1956 38.968 87.4996 39.424 86.6516 39.76C85.8196 40.08 84.8196 40.24 83.6516 40.24ZM83.6516 36.76C84.4836 36.76 85.0836 36.496 85.4516 35.968C85.8356 35.424 86.0356 34.696 86.0516 33.784C86.0836 33.32 86.0996 32.832 86.0996 32.32C86.1156 31.808 86.1156 31.296 86.0996 30.784C86.0996 30.272 86.0836 29.8 86.0516 29.368C86.0356 28.488 85.8356 27.776 85.4516 27.232C85.0836 26.688 84.4836 26.408 83.6516 26.392C82.8356 26.408 82.2356 26.688 81.8516 27.232C81.4836 27.776 81.2836 28.488 81.2516 29.368C81.2516 29.8 81.2436 30.272 81.2276 30.784C81.2276 31.296 81.2276 31.808 81.2276 32.32C81.2436 32.832 81.2516 33.32 81.2516 33.784C81.2836 34.696 81.4916 35.424 81.8756 35.968C82.2596 36.496 82.8516 36.76 83.6516 36.76ZM99.9641 40.24C98.8121 40.24 97.8121 40.08 96.9641 39.76C96.1321 39.424 95.4361 38.968 94.8761 38.392C94.3161 37.816 93.8921 37.144 93.6041 36.376C93.3161 35.608 93.1481 34.784 93.1001 33.904C93.0841 33.472 93.0681 32.984 93.0521 32.44C93.0521 31.88 93.0521 31.32 93.0521 30.76C93.0681 30.184 93.0841 29.672 93.1001 29.224C93.1481 28.344 93.3161 27.528 93.6041 26.776C93.9081 26.008 94.3401 25.344 94.9001 24.784C95.4761 24.208 96.1801 23.76 97.0121 23.44C97.8601 23.12 98.8441 22.96 99.9641 22.96C101.1 22.96 102.084 23.12 102.916 23.44C103.764 23.76 104.468 24.208 105.028 24.784C105.588 25.344 106.02 26.008 106.324 26.776C106.628 27.528 106.804 28.344 106.852 29.224C106.868 29.672 106.876 30.184 106.876 30.76C106.892 31.32 106.892 31.88 106.876 32.44C106.876 32.984 106.868 33.472 106.852 33.904C106.804 34.784 106.628 35.608 106.324 36.376C106.036 37.144 105.612 37.816 105.052 38.392C104.508 38.968 103.812 39.424 102.964 39.76C102.132 40.08 101.132 40.24 99.9641 40.24ZM99.9641 36.76C100.796 36.76 101.396 36.496 101.764 35.968C102.148 35.424 102.348 34.696 102.364 33.784C102.396 33.32 102.412 32.832 102.412 32.32C102.428 31.808 102.428 31.296 102.412 30.784C102.412 30.272 102.396 29.8 102.364 29.368C102.348 28.488 102.148 27.776 101.764 27.232C101.396 26.688 100.796 26.408 99.9641 26.392C99.1481 26.408 98.5481 26.688 98.1641 27.232C97.7961 27.776 97.5961 28.488 97.5641 29.368C97.5641 29.8 97.5561 30.272 97.5401 30.784C97.5401 31.296 97.5401 31.808 97.5401 32.32C97.5561 32.832 97.5641 33.32 97.5641 33.784C97.5961 34.696 97.8041 35.424 98.1881 35.968C98.5721 36.496 99.1641 36.76 99.9641 36.76ZM114.453 39.208C114.277 39.208 114.133 39.152 114.021 39.04C113.909 38.912 113.853 38.768 113.853 38.608V34.216H109.581C109.405 34.216 109.253 34.16 109.125 34.048C109.013 33.936 108.957 33.792 108.957 33.616V31.864C108.957 31.688 109.013 31.544 109.125 31.432C109.253 31.304 109.405 31.24 109.581 31.24H113.853V26.992C113.853 26.816 113.909 26.672 114.021 26.56C114.133 26.448 114.277 26.392 114.453 26.392H116.421C116.581 26.392 116.717 26.448 116.829 26.56C116.957 26.672 117.021 26.816 117.021 26.992V31.24H121.269C121.445 31.24 121.589 31.304 121.701 31.432C121.813 31.544 121.869 31.688 121.869 31.864V33.616C121.869 33.792 121.813 33.936 121.701 34.048C121.589 34.16 121.445 34.216 121.269 34.216H117.021V38.608C117.021 38.768 116.957 38.912 116.829 39.04C116.717 39.152 116.581 39.208 116.421 39.208H114.453Z" fill="#1C3554"/>
<path d="M46.096 66C45.9893 66 45.8987 65.9627 45.824 65.888C45.7493 65.8133 45.712 65.7227 45.712 65.616V56.768H42.752C42.6453 56.768 42.5547 56.7307 42.48 56.656C42.4053 56.5813 42.368 56.4907 42.368 56.384V55.2C42.368 55.0827 42.4 54.9867 42.464 54.912C42.5387 54.8373 42.6347 54.8 42.752 54.8H50.912C51.0293 54.8 51.1253 54.8373 51.2 54.912C51.2747 54.9867 51.312 55.0827 51.312 55.2V56.384C51.312 56.4907 51.2747 56.5813 51.2 56.656C51.1253 56.7307 51.0293 56.768 50.912 56.768H47.968V65.616C47.968 65.7227 47.9307 65.8133 47.856 65.888C47.7813 65.9627 47.6853 66 47.568 66H46.096ZM54.9548 66.16C53.7068 66.16 52.7414 65.84 52.0588 65.2C51.3761 64.5493 51.0081 63.664 50.9548 62.544L50.9388 61.84L50.9548 61.136C51.0081 60.0267 51.3814 59.1467 52.0748 58.496C52.7681 57.8453 53.7281 57.52 54.9548 57.52C56.1814 57.52 57.1414 57.8453 57.8348 58.496C58.5281 59.1467 58.9014 60.0267 58.9548 61.136C58.9654 61.264 58.9708 61.4987 58.9708 61.84C58.9708 62.1813 58.9654 62.416 58.9548 62.544C58.9014 63.664 58.5334 64.5493 57.8508 65.2C57.1681 65.84 56.2028 66.16 54.9548 66.16ZM54.9548 64.576C55.5201 64.576 55.9574 64.4 56.2668 64.048C56.5761 63.6853 56.7468 63.1573 56.7788 62.464C56.7894 62.3573 56.7948 62.1493 56.7948 61.84C56.7948 61.5307 56.7894 61.3227 56.7788 61.216C56.7468 60.5227 56.5761 60 56.2668 59.648C55.9574 59.2853 55.5201 59.104 54.9548 59.104C54.3894 59.104 53.9521 59.2853 53.6428 59.648C53.3334 60 53.1628 60.5227 53.1308 61.216L53.1148 61.84L53.1308 62.464C53.1628 63.1573 53.3334 63.6853 53.6428 64.048C53.9521 64.4 54.3894 64.576 54.9548 64.576ZM64.441 66C63.4703 66 62.7397 65.7493 62.249 65.248C61.769 64.736 61.529 63.9893 61.529 63.008V59.376H60.265C60.1583 59.376 60.0677 59.3387 59.993 59.264C59.9183 59.1787 59.881 59.0827 59.881 58.976V58.064C59.881 57.9573 59.9183 57.8667 59.993 57.792C60.0677 57.7173 60.1583 57.68 60.265 57.68H61.529V55.024C61.529 54.9067 61.5663 54.816 61.641 54.752C61.7157 54.6773 61.8063 54.64 61.913 54.64H63.209C63.3263 54.64 63.417 54.6773 63.481 54.752C63.5557 54.816 63.593 54.9067 63.593 55.024V57.68H65.593C65.7103 57.68 65.801 57.7173 65.865 57.792C65.9397 57.856 65.977 57.9467 65.977 58.064V58.976C65.977 59.0933 65.9397 59.1893 65.865 59.264C65.7903 59.3387 65.6997 59.376 65.593 59.376H63.593V62.848C63.593 63.3067 63.673 63.6533 63.833 63.888C63.993 64.1227 64.2597 64.24 64.633 64.24H65.737C65.8437 64.24 65.9343 64.2773 66.009 64.352C66.0837 64.4267 66.121 64.5173 66.121 64.624V65.616C66.121 65.7227 66.0837 65.8133 66.009 65.888C65.945 65.9627 65.8543 66 65.737 66H64.441ZM69.9564 66.16C69.4124 66.16 68.911 66.0533 68.4524 65.84C68.0044 65.616 67.647 65.3173 67.3804 64.944C67.1244 64.5707 66.9964 64.16 66.9964 63.712C66.9964 62.9867 67.2897 62.4 67.8764 61.952C68.463 61.504 69.2684 61.2 70.2924 61.04L72.4844 60.72V60.384C72.4844 59.9147 72.367 59.5627 72.1324 59.328C71.8977 59.0933 71.519 58.976 70.9964 58.976C70.6444 58.976 70.3564 59.0453 70.1324 59.184C69.919 59.312 69.7484 59.44 69.6204 59.568C69.4924 59.7067 69.407 59.7973 69.3644 59.84C69.3217 59.968 69.2417 60.032 69.1244 60.032H67.8924C67.7964 60.032 67.711 60 67.6364 59.936C67.5724 59.872 67.5404 59.7867 67.5404 59.68C67.551 59.4133 67.679 59.1093 67.9244 58.768C68.1804 58.4267 68.5697 58.1333 69.0924 57.888C69.615 57.6427 70.255 57.52 71.0124 57.52C72.271 57.52 73.1884 57.8027 73.7644 58.368C74.3404 58.9333 74.6284 59.6747 74.6284 60.592V65.616C74.6284 65.7227 74.591 65.8133 74.5164 65.888C74.4524 65.9627 74.3617 66 74.2444 66H72.9484C72.8417 66 72.751 65.9627 72.6764 65.888C72.6017 65.8133 72.5644 65.7227 72.5644 65.616V64.992C72.3297 65.3333 71.9937 65.616 71.5564 65.84C71.1297 66.0533 70.5964 66.16 69.9564 66.16ZM70.5004 64.64C71.087 64.64 71.567 64.448 71.9404 64.064C72.3137 63.68 72.5004 63.12 72.5004 62.384V62.048L70.9004 62.304C70.2817 62.4 69.8124 62.5547 69.4924 62.768C69.183 62.9813 69.0284 63.2427 69.0284 63.552C69.0284 63.8933 69.1724 64.16 69.4604 64.352C69.7484 64.544 70.095 64.64 70.5004 64.64ZM77.081 66C76.9743 66 76.8837 65.9627 76.809 65.888C76.7343 65.8133 76.697 65.7227 76.697 65.616V55.024C76.697 54.9067 76.7343 54.816 76.809 54.752C76.8837 54.6773 76.9743 54.64 77.081 54.64H78.409C78.5263 54.64 78.617 54.6773 78.681 54.752C78.7557 54.816 78.793 54.9067 78.793 55.024V65.616C78.793 65.7227 78.7557 65.8133 78.681 65.888C78.617 65.9627 78.5263 66 78.409 66H77.081ZM85.1476 66C85.041 66 84.9503 65.9627 84.8756 65.888C84.801 65.8133 84.7636 65.7227 84.7636 65.616V55.2C84.7636 55.0827 84.7956 54.9867 84.8596 54.912C84.9343 54.8373 85.0303 54.8 85.1476 54.8H89.2916C90.593 54.8 91.6116 55.104 92.3476 55.712C93.0943 56.32 93.4676 57.184 93.4676 58.304C93.4676 59.0827 93.2756 59.7387 92.8916 60.272C92.5183 60.7947 91.9956 61.1733 91.3236 61.408L93.6596 65.488C93.6916 65.552 93.7076 65.6107 93.7076 65.664C93.7076 65.76 93.6703 65.84 93.5956 65.904C93.5316 65.968 93.457 66 93.3716 66H91.9156C91.745 66 91.6116 65.9627 91.5156 65.888C91.4303 65.8133 91.3503 65.7067 91.2756 65.568L89.2116 61.776H86.9876V65.616C86.9876 65.7227 86.9503 65.8133 86.8756 65.888C86.8116 65.9627 86.721 66 86.6036 66H85.1476ZM89.2436 59.968C89.8836 59.968 90.3636 59.824 90.6836 59.536C91.0143 59.248 91.1796 58.832 91.1796 58.288C91.1796 57.744 91.0143 57.3227 90.6836 57.024C90.3636 56.7253 89.8836 56.576 89.2436 56.576H86.9876V59.968H89.2436ZM98.8275 66.16C97.6435 66.16 96.6995 65.8187 95.9955 65.136C95.3022 64.4427 94.9342 63.472 94.8915 62.224L94.8755 61.824L94.8915 61.424C94.9448 60.208 95.3182 59.2533 96.0115 58.56C96.7155 57.8667 97.6542 57.52 98.8275 57.52C100.086 57.52 101.057 57.904 101.74 58.672C102.433 59.44 102.78 60.464 102.78 61.744V62.08C102.78 62.1867 102.742 62.2773 102.668 62.352C102.593 62.4267 102.497 62.464 102.38 62.464H97.0675V62.592C97.0888 63.1787 97.2488 63.6747 97.5475 64.08C97.8568 64.4747 98.2782 64.672 98.8115 64.672C99.4408 64.672 99.9475 64.4267 100.332 63.936C100.428 63.8187 100.502 63.744 100.556 63.712C100.62 63.68 100.71 63.664 100.828 63.664H102.204C102.3 63.664 102.38 63.696 102.444 63.76C102.518 63.8133 102.556 63.8827 102.556 63.968C102.556 64.224 102.401 64.528 102.092 64.88C101.793 65.2213 101.361 65.52 100.796 65.776C100.23 66.032 99.5742 66.16 98.8275 66.16ZM100.604 61.12V61.072C100.604 60.4427 100.444 59.936 100.124 59.552C99.8142 59.168 99.3822 58.976 98.8275 58.976C98.2728 58.976 97.8408 59.168 97.5315 59.552C97.2222 59.936 97.0675 60.4427 97.0675 61.072V61.12H100.604ZM107.125 66C106.965 66 106.842 65.968 106.757 65.904C106.672 65.8293 106.602 65.728 106.549 65.6L103.557 58.176L103.525 58.032C103.525 57.936 103.557 57.856 103.621 57.792C103.696 57.7173 103.781 57.68 103.877 57.68H105.173C105.376 57.68 105.514 57.7813 105.589 57.984L107.717 63.6L109.845 57.984C109.877 57.9093 109.925 57.84 109.989 57.776C110.064 57.712 110.154 57.68 110.261 57.68H111.573C111.658 57.68 111.733 57.7173 111.797 57.792C111.872 57.856 111.909 57.936 111.909 58.032C111.909 58.096 111.904 58.144 111.893 58.176L108.885 65.6C108.832 65.728 108.762 65.8293 108.677 65.904C108.592 65.968 108.469 66 108.309 66H107.125ZM113.689 56.304C113.582 56.304 113.491 56.2667 113.417 56.192C113.342 56.1173 113.305 56.0267 113.305 55.92V54.768C113.305 54.6613 113.342 54.5707 113.417 54.496C113.491 54.4213 113.582 54.384 113.689 54.384H115.145C115.251 54.384 115.342 54.4213 115.417 54.496C115.502 54.5707 115.545 54.6613 115.545 54.768V55.92C115.545 56.0267 115.507 56.1173 115.433 56.192C115.358 56.2667 115.262 56.304 115.145 56.304H113.689ZM113.753 66C113.646 66 113.555 65.9627 113.481 65.888C113.406 65.8133 113.368 65.7227 113.368 65.616V58.064C113.368 57.9573 113.406 57.8667 113.481 57.792C113.555 57.7173 113.646 57.68 113.753 57.68H115.081C115.198 57.68 115.289 57.7173 115.353 57.792C115.427 57.856 115.465 57.9467 115.465 58.064V65.616C115.465 65.7227 115.427 65.8133 115.353 65.888C115.289 65.9627 115.198 66 115.081 66H113.753ZM121.171 66.16C119.987 66.16 119.043 65.8187 118.339 65.136C117.646 64.4427 117.278 63.472 117.235 62.224L117.219 61.824L117.235 61.424C117.289 60.208 117.662 59.2533 118.355 58.56C119.059 57.8667 119.998 57.52 121.171 57.52C122.43 57.52 123.401 57.904 124.083 58.672C124.777 59.44 125.123 60.464 125.123 61.744V62.08C125.123 62.1867 125.086 62.2773 125.011 62.352C124.937 62.4267 124.841 62.464 124.723 62.464H119.411V62.592C119.433 63.1787 119.593 63.6747 119.891 64.08C120.201 64.4747 120.622 64.672 121.155 64.672C121.785 64.672 122.291 64.4267 122.675 63.936C122.771 63.8187 122.846 63.744 122.899 63.712C122.963 63.68 123.054 63.664 123.171 63.664H124.547C124.643 63.664 124.723 63.696 124.787 63.76C124.862 63.8133 124.899 63.8827 124.899 63.968C124.899 64.224 124.745 64.528 124.435 64.88C124.137 65.2213 123.705 65.52 123.139 65.776C122.574 66.032 121.918 66.16 121.171 66.16ZM122.947 61.12V61.072C122.947 60.4427 122.787 59.936 122.467 59.552C122.158 59.168 121.726 58.976 121.171 58.976C120.617 58.976 120.185 59.168 119.875 59.552C119.566 59.936 119.411 60.4427 119.411 61.072V61.12H122.947ZM128.859 66C128.721 66 128.609 65.968 128.523 65.904C128.449 65.8293 128.385 65.728 128.331 65.6L126.043 58.176C126.033 58.144 126.027 58.096 126.027 58.032C126.027 57.936 126.059 57.856 126.123 57.792C126.198 57.7173 126.278 57.68 126.363 57.68H127.547C127.665 57.68 127.761 57.712 127.835 57.776C127.91 57.84 127.958 57.9093 127.979 57.984L129.547 63.28L131.211 58.032C131.243 57.936 131.297 57.856 131.371 57.792C131.457 57.7173 131.563 57.68 131.691 57.68H132.491C132.619 57.68 132.721 57.7173 132.795 57.792C132.881 57.856 132.939 57.936 132.971 58.032L134.635 63.28L136.203 57.984C136.214 57.9093 136.257 57.84 136.331 57.776C136.417 57.712 136.513 57.68 136.619 57.68H137.803C137.899 57.68 137.979 57.7173 138.043 57.792C138.118 57.856 138.155 57.936 138.155 58.032L138.123 58.176L135.835 65.6C135.793 65.728 135.729 65.8293 135.643 65.904C135.569 65.968 135.462 66 135.323 66H134.283C134.006 66 133.83 65.8667 133.755 65.6L132.091 60.544L130.427 65.6C130.342 65.8667 130.161 66 129.883 66H128.859Z" fill="#1C3554"/>
</svg>
