<svg width="24" height="24" viewBox="0 0 24 24" fill="none" xmlns="http://www.w3.org/2000/svg">
<path fill-rule="evenodd" clip-rule="evenodd" d="M16.5148 15.7917L12.5831 13.4583V8.17333C12.5831 7.70667 12.2098 7.33333 11.7431 7.33333H11.6731C11.2065 7.33333 10.8331 7.70667 10.8331 8.17333V13.68C10.8331 14.0883 11.0431 14.4733 11.4048 14.6833L15.6631 17.2383C16.0598 17.4717 16.5731 17.355 16.8065 16.9583C17.0515 16.55 16.9231 16.025 16.5148 15.7917ZM22.7098 3.845L19.1165 0.858334C18.6265 0.450001 17.8915 0.508334 17.4715 1.01C17.0631 1.5 17.1331 2.235 17.6231 2.655L21.2048 5.64167C21.6948 6.05 22.4298 5.99167 22.8498 5.49C23.2698 5 23.1998 4.265 22.7098 3.845ZM2.78314 5.64167L6.3648 2.655C6.86647 2.235 6.93647 1.5 6.51647 1.01C6.10814 0.508334 5.37314 0.450001 4.88314 0.858334L1.2898 3.845C0.799803 4.265 0.729803 5 1.1498 5.49C1.55814 5.99167 2.29314 6.05 2.78314 5.64167ZM11.9998 2.66667C6.20147 2.66667 1.4998 7.36833 1.4998 13.1667C1.4998 18.965 6.20147 23.6667 11.9998 23.6667C17.7981 23.6667 22.4998 18.965 22.4998 13.1667C22.4998 7.36833 17.7981 2.66667 11.9998 2.66667ZM11.9998 21.3333C7.49647 21.3333 3.83314 17.67 3.83314 13.1667C3.83314 8.66333 7.49647 5 11.9998 5C16.5031 5 20.1665 8.66333 20.1665 13.1667C20.1665 17.67 16.5031 21.3333 11.9998 21.3333Z" fill="white"/>
</svg>
