<svg width="144" height="280" viewBox="0 0 144 280" fill="none" xmlns="http://www.w3.org/2000/svg">
<path d="M127.511 16.4538L143.939 -3.43323e-05V32.8826L127.511 16.4538Z" fill="#FAA307"/>
<path d="M127.511 65.6899L143.939 49.2611V82.1438L127.511 65.6899Z" fill="#FAA307"/>
<path d="M127.511 114.951L143.939 98.5222V131.38L127.511 114.951Z" fill="#FAA307"/>
<path d="M127.511 164.212L143.939 147.783V180.641L127.511 164.212Z" fill="#FAA307"/>
<path d="M127.511 213.473L143.939 197.044V229.902L127.511 213.473Z" fill="#FAA307"/>
<path d="M127.511 262.734L143.939 246.306V279.163L127.511 262.734Z" fill="#FAA307"/>
<path d="M77.1946 65.6894L93.6233 49.2606V82.1433L77.1946 65.6894Z" fill="#FAA307"/>
<path d="M77.1946 114.951L93.6233 98.5222V131.38L77.1946 114.951Z" fill="#FAA307"/>
<path d="M77.1946 164.212L93.6233 147.783V180.64L77.1946 164.212Z" fill="#FAA307"/>
<path d="M77.1946 213.473L93.6233 197.044V229.902L77.1946 213.473Z" fill="#FAA307"/>
<path d="M26.8782 114.951L43.332 98.5222V131.38L26.8782 114.951Z" fill="#FAA307"/>
<path d="M26.8784 164.212L43.3323 147.783V180.641L26.8784 164.212Z" fill="#FAA307"/>
<path d="M100.908 41.072L117.337 24.6433V57.5007L100.908 41.072Z" fill="#FAA307"/>
<path d="M100.908 90.3327L117.337 73.904V106.761L100.908 90.3327Z" fill="#FAA307"/>
<path d="M100.908 139.594L117.337 123.165V156.023L100.908 139.594Z" fill="#FAA307"/>
<path d="M100.908 188.855L117.337 172.426V205.284L100.908 188.855Z" fill="#FAA307"/>
<path d="M100.908 238.116L117.337 221.687V254.545L100.908 238.116Z" fill="#FAA307"/>
<path d="M52.049 90.3332L68.4778 73.9045V106.762L52.049 90.3332Z" fill="#FAA307"/>
<path d="M52.049 139.594L68.4778 123.165V156.023L52.049 139.594Z" fill="#FAA307"/>
<path d="M52.049 188.855L68.4778 172.427V205.284L52.049 188.855Z" fill="#FAA307"/>
<path d="M-0.000545502 139.594L16.4282 123.165L16.4282 156.023L-0.000545502 139.594Z" fill="#FAA307"/>
</svg>
